# xmcd
#
# Track frame offsets:
#	150
#	21580
#	45757
#	64562
#	82365
#	101652
#	119025
#	141047
#	160892
#	180080
#	196915
#	214122
#
# Disc length: 3068 seconds
#
# Revision: 1
# Processed by: cddbd v1.5PL3 Copyright (c) Steve Scherf et al.
# Submitted via: CDex 1.50Beta5
#
DISCID=a30bfa0c
DTITLE=Various Artist - 制服のアイドルたち
DYEAR=1988
DGENRE=Pop
TTITLE0=斉藤由貴/卒業
TTITLE1=南野陽子/春景色
TTITLE2=浅香唯/ひとりぼっちの卒業式
TTITLE3=うしろ髪ひかれ隊/うしろ髪ひかれたい
TTITLE4=渡辺美奈代/リルケの栞
TTITLE5=おニャン子クラブ/じゃあね
TTITLE6=渡辺満里奈/ふたりの少年
TTITLE7=うしろゆびさされ組/うしろゆびさされ組
TTITLE8=伊藤麻衣子/微熱かナ
TTITLE9=工藤夕貴/ヒロイン
TTITLE10=岩崎良美/青春
TTITLE11=松田聖子/制服
EXTD=
EXTT0=
EXTT1=
EXTT2=
EXTT3=
EXTT4=
EXTT5=
EXTT6=
EXTT7=
EXTT8=
EXTT9=
EXTT10=
EXTT11=
PLAYORDER=
